<?xml version="1.0" encoding="iso-8859-1"?>
<!-- Generator: Adobe Illustrator 19.0.0, SVG Export Plug-In . SVG Version: 6.00 Build 0)  -->
<svg version="1.1" id="Layer_1" xmlns="http://www.w3.org/2000/svg" xmlns:xlink="http://www.w3.org/1999/xlink" x="0px" y="0px"
	 viewBox="0 0 512 512" style="enable-background:new 0 0 512 512;" xml:space="preserve">
<g>
	<g>
		<polygon style="fill:#BDC3C7;" points="66.138,157.754 57.452,142.385 237.526,40.603 246.212,55.972 		"/>
		<polygon style="fill:#BDC3C7;" points="445.56,157.573 282.629,56.718 291.925,41.711 454.855,142.566 		"/>
	</g>
	<path style="fill:#F9EBB0;" d="M503.172,512H8.828C3.955,512,0,508.045,0,503.172V150.069c0-4.873,3.955-8.828,8.828-8.828h494.345
		c4.873,0,8.828,3.955,8.828,8.828v353.103C512,508.045,508.045,512,503.172,512"/>
	<polygon style="fill:#E64C3C;" points="185.379,459.039 308.966,459.039 308.966,335.453 185.379,335.453 	"/>
	<g>
		<polygon style="fill:#F0C419;" points="247.172,247.172 335.448,335.448 158.897,335.448 		"/>
		<polygon style="fill:#F0C419;" points="229.517,459.039 264.828,459.039 264.828,406.073 229.517,406.073 		"/>
	</g>
	<path style="fill:#CB8252;" d="M97.103,467.862c-4.882,0-8.828-3.955-8.828-8.828V282.483c0-4.873,3.946-8.828,8.828-8.828
		s8.828,3.955,8.828,8.828v176.552C105.931,463.907,101.985,467.862,97.103,467.862"/>
	<g>
		<path style="fill:#F18D46;" d="M397.241,203.034c-4.882,0-8.828-3.955-8.828-8.828v-17.655c0-4.873,3.946-8.828,8.828-8.828
			c4.882,0,8.828,3.955,8.828,8.828v17.655C406.069,199.08,402.123,203.034,397.241,203.034"/>
		<path style="fill:#F18D46;" d="M397.241,308.966c-4.882,0-8.828-3.955-8.828-8.828v-17.655c0-4.873,3.946-8.828,8.828-8.828
			c4.882,0,8.828,3.955,8.828,8.828v17.655C406.069,305.011,402.123,308.966,397.241,308.966"/>
		<path style="fill:#F18D46;" d="M459.034,247.172h-17.655c-4.882,0-8.828-3.955-8.828-8.828c0-4.873,3.946-8.828,8.828-8.828
			h17.655c4.882,0,8.828,3.955,8.828,8.828C467.862,243.218,463.916,247.172,459.034,247.172"/>
		<path style="fill:#F18D46;" d="M353.103,247.172h-17.655c-4.882,0-8.828-3.955-8.828-8.828c0-4.873,3.946-8.828,8.828-8.828
			h17.655c4.882,0,8.828,3.955,8.828,8.828C361.931,243.218,357.985,247.172,353.103,247.172"/>
		<path style="fill:#F18D46;" d="M428.449,215.962c-2.26,0-4.52-0.865-6.241-2.586c-3.452-3.452-3.452-9.039,0-12.491l12.491-12.482
			c3.452-3.434,9.031-3.443,12.482,0.009c3.452,3.452,3.452,9.039,0,12.482l-12.491,12.491
			C432.968,215.096,430.709,215.962,428.449,215.962"/>
		<path style="fill:#F18D46;" d="M353.543,290.866c-2.26,0-4.52-0.865-6.241-2.586c-3.452-3.452-3.452-9.039,0-12.491l12.491-12.482
			c3.452-3.434,9.031-3.443,12.482,0.009c3.452,3.452,3.452,9.039,0,12.482l-12.491,12.491
			C358.063,290.001,355.803,290.866,353.543,290.866"/>
		<path style="fill:#F18D46;" d="M440.94,290.866c-2.26,0-4.52-0.865-6.241-2.578l-12.491-12.491c-3.452-3.443-3.452-9.031,0-12.482
			c3.452-3.452,9.031-3.443,12.482-0.009l12.491,12.482c3.452,3.452,3.452,9.039,0,12.491
			C445.459,290.001,443.2,290.866,440.94,290.866"/>
		<path style="fill:#F18D46;" d="M366.034,215.962c-2.26,0-4.52-0.865-6.241-2.578l-12.491-12.491
			c-3.452-3.443-3.452-9.031,0-12.482c3.452-3.452,9.031-3.443,12.482-0.009l12.491,12.482c3.452,3.452,3.452,9.039,0,12.491
			C370.554,215.096,368.294,215.962,366.034,215.962"/>
	</g>
	<g>
		<path style="fill:#805333;" d="M512,441.379v61.793c0,4.873-3.955,8.828-8.828,8.828h-61.793L512,441.379z"/>
		<path style="fill:#805333;" d="M70.621,512H8.828C3.955,512,0,508.045,0,503.172v-61.793L70.621,512z"/>
		<path style="fill:#805333;" d="M0,211.862v-61.793c0-4.873,3.955-8.828,8.828-8.828h61.793L0,211.862z"/>
		<path style="fill:#805333;" d="M441.379,141.241h61.793c4.873,0,8.828,3.955,8.828,8.828v61.793L441.379,141.241z"/>
	</g>
	<path style="fill:#ECF0F1;" d="M264.828,70.621c-19.474,0-35.31-15.837-35.31-35.31S245.354,0,264.828,0
		c19.474,0,35.31,15.837,35.31,35.31S284.301,70.621,264.828,70.621"/>
	<path style="fill:#F0C419;" d="M441.379,238.345c0,24.373-19.765,44.138-44.138,44.138c-24.373,0-44.138-19.765-44.138-44.138
		s19.765-44.138,44.138-44.138C421.614,194.207,441.379,213.972,441.379,238.345"/>
	<path style="fill:#71C285;" d="M141.241,238.345c0,24.373-19.765,44.138-44.138,44.138s-44.138-19.765-44.138-44.138
		s19.765-44.138,44.138-44.138S141.241,213.972,141.241,238.345"/>
</g>
<g>
</g>
<g>
</g>
<g>
</g>
<g>
</g>
<g>
</g>
<g>
</g>
<g>
</g>
<g>
</g>
<g>
</g>
<g>
</g>
<g>
</g>
<g>
</g>
<g>
</g>
<g>
</g>
<g>
</g>
</svg>
