<?xml version="1.0" encoding="iso-8859-1"?>
<!-- Generator: Adobe Illustrator 19.0.0, SVG Export Plug-In . SVG Version: 6.00 Build 0)  -->
<svg version="1.1" id="Layer_1" xmlns="http://www.w3.org/2000/svg" xmlns:xlink="http://www.w3.org/1999/xlink" x="0px" y="0px"
	 viewBox="0 0 512 512" style="enable-background:new 0 0 512 512;" xml:space="preserve">
<g>
	<path style="fill:#35495E;" d="M233.931,0C107.176,0,4.414,102.762,4.414,229.517s102.762,229.517,229.517,229.517
		c31.462,0,61.449-6.347,88.753-17.805l132.811-151.773c5.155-19.112,7.954-39.195,7.954-59.939
		C463.448,102.762,360.686,0,233.931,0"/>
	<path style="fill:#5D6D7E;" d="M233.931,459.034c4.449,0,8.854-0.159,13.241-0.406C126.579,451.761,30.897,351.823,30.897,229.517
		S126.579,7.274,247.172,0.406C242.785,0.159,238.38,0,233.931,0C107.176,0,4.414,102.762,4.414,229.517
		S107.176,459.034,233.931,459.034"/>
	<path style="fill:#283747;" d="M233.931,0c-4.449,0-8.854,0.159-13.241,0.406c120.594,6.868,216.276,106.805,216.276,229.111
		S341.283,451.761,220.69,458.628c4.387,0.247,8.792,0.406,13.241,0.406c126.755,0,229.517-102.762,229.517-229.517
		S360.686,0,233.931,0"/>
	<path style="fill:#587187;" d="M295.724,229.517c0,34.127-27.666,61.793-61.793,61.793s-61.793-27.666-61.793-61.793
		s27.666-61.793,61.793-61.793S295.724,195.39,295.724,229.517"/>
	<path style="fill:#849CAF;" d="M260.414,229.517c0,14.627-11.855,26.483-26.483,26.483s-26.483-11.855-26.483-26.483
		s11.855-26.483,26.483-26.483S260.414,214.89,260.414,229.517"/>
	<g>
		<path style="fill:#587187;" d="M48.552,238.345c-4.882,0-8.828-3.955-8.828-8.828c0-107.087,87.119-194.207,194.207-194.207
			c4.882,0,8.828,3.955,8.828,8.828s-3.946,8.828-8.828,8.828c-97.351,0-176.552,79.201-176.552,176.552
			C57.379,234.39,53.433,238.345,48.552,238.345"/>
		<path style="fill:#587187;" d="M101.517,229.517c-4.882,0-8.828-3.955-8.828-8.828c0-73.013,59.401-132.414,132.414-132.414
			c4.882,0,8.828,3.955,8.828,8.828s-3.946,8.828-8.828,8.828c-63.276,0-114.759,51.482-114.759,114.759
			C110.345,225.562,106.399,229.517,101.517,229.517"/>
	</g>
	<path style="fill:#FDD7AD;" d="M507.586,423.724c0,19.094-9.013,30.402-13.806,35.937c-3.469,3.999-5.544,10.946-6.7,16.11
		C482.392,496.666,466.909,512,445.484,512h-55.093c-27.33,0-59.357-16.808-59.357-44.138v-17.655
		c-21.433-22.634-18.308-20.833-29.908-45.595c-17.946-32.291-49.796-64.583-49.54-66.048c0.256-1.465-1.368-6.453,5.508-11.008
		c1.995-1.315,4.096-2.551,6.382-3.407c17.655-6.656,43.75,2.216,55.022,21.645l12.535,16.137V220.69
		c0-12.156,0-26.483,22.016-26.483c22.669,0,22.122,18.785,22.122,26.527v88.232v-35.31c0-12.156,4.961-26.483,21.601-26.483
		c19.227,0,22.537,14.327,22.537,26.483v35.31v-0.044c0-20.303,8.519-26.439,21.707-26.439c13.294,0,22.431,14.795,22.431,26.483
		v17.655c0-12.156,9.084-17.655,17.346-17.655C504.647,308.966,507.586,340.93,507.586,423.724"/>
	<path style="fill:#BEA182;" d="M480.793,308.966c-2.913,0-5.923,0.724-8.616,2.154c15.554,8.245,17.752,41.781,17.752,112.605
		c0,19.094-9.013,30.402-13.806,35.937c-3.469,3.999-5.544,10.955-6.7,16.11C464.735,496.666,449.252,512,427.827,512h17.655
		c21.425,0,36.908-15.334,41.596-36.228c1.156-5.155,3.231-12.111,6.7-16.11c4.793-5.535,13.806-16.843,13.806-35.937
		C507.584,340.93,504.645,308.966,480.793,308.966"/>
	<g>
		<path style="fill:#F09372;" d="M339.551,379.586c-2.26,0-4.52-0.865-6.241-2.586l-8.828-8.828c-3.452-3.452-3.452-9.031,0-12.482
			c3.452-3.452,9.031-3.452,12.482,0l8.828,8.828c3.452,3.452,3.452,9.031,0,12.482
			C344.071,378.721,341.811,379.586,339.551,379.586"/>
		<path style="fill:#F09372;" d="M375.172,379.586c-4.882,0-8.828-3.955-8.828-8.828v-61.793c0-4.873,3.946-8.828,8.828-8.828
			c4.882,0,8.828,3.955,8.828,8.828v61.793C384,375.631,380.054,379.586,375.172,379.586"/>
		<path style="fill:#F09372;" d="M419.31,370.759c-4.882,0-8.828-3.955-8.828-8.828v-52.966c0-4.873,3.946-8.828,8.828-8.828
			c4.882,0,8.828,3.955,8.828,8.828v52.966C428.138,366.804,424.192,370.759,419.31,370.759"/>
		<path style="fill:#F09372;" d="M463.448,379.586c-4.882,0-8.828-3.955-8.828-8.828v-44.138c0-4.873,3.946-8.828,8.828-8.828
			c4.882,0,8.828,3.955,8.828,8.828v44.138C472.276,375.631,468.33,379.586,463.448,379.586"/>
	</g>
</g>
<g>
</g>
<g>
</g>
<g>
</g>
<g>
</g>
<g>
</g>
<g>
</g>
<g>
</g>
<g>
</g>
<g>
</g>
<g>
</g>
<g>
</g>
<g>
</g>
<g>
</g>
<g>
</g>
<g>
</g>
</svg>
